<?xml version="1.0" standalone="no"?><svg xmlns="http://www.w3.org/2000/svg" viewBox="0 0 1440 320"><path fill="#e58d00" fill-opacity="1" d="M0,96L24,106.7C48,117,96,139,144,128C192,117,240,75,288,64C336,53,384,75,432,96C480,117,528,139,576,138.7C624,139,672,117,720,117.3C768,117,816,139,864,149.3C912,160,960,160,1008,149.3C1056,139,1104,117,1152,112C1200,107,1248,117,1296,138.7C1344,160,1392,192,1416,208L1440,224L1440,0L1416,0C1392,0,1344,0,1296,0C1248,0,1200,0,1152,0C1104,0,1056,0,1008,0C960,0,912,0,864,0C816,0,768,0,720,0C672,0,624,0,576,0C528,0,480,0,432,0C384,0,336,0,288,0C240,0,192,0,144,0C96,0,48,0,24,0L0,0Z"></path></svg>